/* XPM */
static char *_bdd3b9e21c84e258818c42bb1e1ea3a9V5lzSMYRuLklhZT[] = {
	/* columns rows colors chars-per-pixel */
	"64 64 7 1 ",
	"  c #674D3F",
	". c #5E4639",
	"X c #544035",
	"o c #89744F",
	"O c #605340",
	"+ c #4D4233",
	"@ c #746344",
	/* pixels */
	" .        ....... .. .......... XXX....XXX..........  ......  ..",
	"...XXXXXXXX...   ....  ........ ...XXXX................     . ..",
	".....XXXXX.... ....XXXXXXXX...........              .........  .",
	"    .. ... .....  ..XXXX.......       ...   .......          ...",
	"     ....        .XX.......  .  .........     ..    ..  ........",
	"..    ..   ....   ..  .....   ..     .. .. ...  ....    XX..XXX.",
	"  ....XX.....XX...  ........... ...  XXXXX.XXXXX..   .    XX....",
	"   .. ..XXXXX.   ...  .                 XXXXXX................  ",
	".      ....   .   ...   .........  ........... ..        .......",
	"X........ ..   ..  .....XXXXXXXX.     .....     .......     ....",
	".     ..   ..   .. ..   ..XXXXX.....    .....XX....XX...       .",
	" ..X.   ....X.   ..  ..........       ..     ..XXXX..   ........",
	"   .X...    ..XXX ... ........  ..........     ....    ....     ",
	"..XXXX.......X...  ...         .XXX.....XX...XXX   .............",
	"....XXXXXXXXX.    ... ................ ...XXX........XX.......XX",
	"...X.  ..   ....   .... .     .....                  ..XXXXXX...",
	"  ....  ...   X....X ...        .         .......   ............",
	" .......  ...  XXXX.   ...   ............     ....... .....     ",
	"...   ...   ....  . ...X......X .XXX..XXX. .X.       ..        .",
	"..     ...    ....     .XXXXXX......XX..  . . ...  ....  .......",
	". ..............  .....       .........   ..  X...XXX  ...      ",
	"............   ..XX..  ... ...  .....   ..... .XXX.........    .",
	"...     ...      .....XXX..XXXX....   .....         ..   .......",
	"...  ......  ......  ....XXXXX..... .....     . ..........    ..",
	".  ......     .XX.   .............................       .......",
	"..X.... ...             .......................      ..   ......",
	"...XXX.  .XXX........  ..       ......   ...     ...            ",
	"  .       ..XX.....XX..    ......       ..   ............  .....",
	".  .......XXXXXXXXX......    ....    ..   .XX....XXXX....  XXX..",
	"...   .  ...................   ..............XXXX.............XX",
	"..        ......  .......   ....   .................     .......",
	"    .....   ....... ..       .....     ...........   ......    .",
	"oooooooooooooooooooooooooooooooooooooooooooooooooooooooooooooooo",
	"Oooooooooooooooooooooooooooooooooooooooooooooooooooooooooooooooo",
	"OOOOOOOOOOOOOOOOOOOOOOOOOOOOOOOOOOOOOOOOOOOOOOOOOOOOOOOOOOOOOOOO",
	"+OOOOOOOOOOOOOOOOOOOOOOOOOOOOOOOOOOOOOOOOOOOOOOOOOOOOOOOOOOOOOOO",
	"O+++++++++++++++++++++++++++++++++++++++++++++++++++++++++++++++",
	"@O+OOOOOOOOOO+OOOOOOO+OOOOOOO+OO+OOOOOO+OOOOOO+OOOOOO+OOOOOOOOOO",
	"@O+OOOOOOOOOO+@@@@OO@+@@OOOO@+@O+OOO@OO+OO@OOO+O@@OOO+OOO@OOOOOO",
	"@O+O@OO@OOO@@+@@@@@O@+@@@O@O@O@@+@@@@OO+OO@@OO+@@@O@O+O@@@O@@OOO",
	"@O+@@@O@OOO@@+@@@@@O@+oooOo@oOo@+o@@@@@+@O@@O@+@@o@@@+@@o@O@@@OO",
	"@OO@@@@@O@O@@+@@@@@@@+oooOoooOo@+o@@o@@+@@o@@@+@oo@@@+@oo@O@@@@O",
	"@OO@@@@@O@O@@+@@@@o@@+oooOooo@o@+o@@o@@+@oo@@@+ooo@o@+@oo@Oo@@@O",
	"@OO@@@@@@@O@@+@@o@o@@+ooo@ooo@o@+o@@oo@O@oo@@@Oooo@o@+@oo@Oo@@@O",
	"@OOo@@@@@@@@@+@@o@oo@+ooo@ooo@o@+oo@oo@O@oo@@@+ooooo@+@oo@Ooo@@O",
	"@OOo@o@@@o@@@+@oo@oo@Oooo@ooo@o@+oo@oo@O@ooo@@+ooooo@O@oo@Ooo@@O",
	"@OOooo@o@oo@@+@oo@oo@Oooooooo@o@+oo@oo@O@ooo@@+ooooo@Oooo@@oo@@@",
	"@OOooo@oooo@@+@oo@oo@Oooooooo@o@+oo@oo@O@ooo@@Oooooo@Oooo@@oo@@@",
	"@OOooo@oooo@@+@ooooo@Oooo@ooo@o@+oo@oo@O@ooo@@Oooooo@Oooo@@oo@@@",
	"@OOoooooooo@@+@ooooo@Oooo@ooo@o@+oo@oo@O@ooo@@Oooooo@Oooo@@oo@@@",
	"@OOoooooooo@@+@ooooo@Oooo@ooo@o@Ooo@oo@O@ooo@@Oooooo@Oooo@@oo@@@",
	"@OOoooooooo@@+@ooooo@Oooooooo@o@Ooo@oo@O@ooo@@Oooooo@Oo@o@@oo@o@",
	"@OOoooooooo@@+@ooooo@Oooooooo@o@Ooo@oo@O@ooo@@Oooooo@Oo@o@@oooo@",
	"@OOoooooooo@@O@ooooo@Oooooooo@o@Ooo@oo@O@ooo@@Oooooo@Oo@o@oo@oo@",
	"@OOooooooooo@O@ooooo@@ooooooo@o@Ooo@oo@O@ooo@@Oooooo@Oooo@oo@oo@",
	"@OOooooooooo@O@oooooo@ooooooo@o@Ooo@oo@O@ooo@@Oooooo@+ooo@oo@oo@",
	"@OOoo@oooooo@O@oooooo@ooooooo@o@Ooo@oo@O@ooo@@Oooooo@+ooo@oo@oo@",
	"@OOoo@oooooo@O@oooooooooooooo@o@Ooo@oo@O@ooo@@Oooooo@+ooo@oo@oo@",
	"@OOoo@oooooo@O@oooooo@ooooooo@o@Ooo@oo@O@ooo@@Oooooo@+@oo@oo@oo@",
	"@OOooOoooooo@O@oooooooooooooo@o@Ooo@oo@O@ooo@@OoOooo@+@oo@ooooo@",
	"@OOooOoooooo@O@ooo@oooooooooo@o@Oooooo@O@ooo@@Oooooo@+@oo@ooooo@",
	"@OO@@O@@@@@@OO@ooo@oooooooooo@o@Ooo@oo@O@ooo@@OoooOo@+@oo@ooooo@",
	"@OOOOOOoOOOOOO@ooo@oooooooooo@o@Ooo@oo@O@ooo@@Oooooo@+@oo@ooooo@",
	"@OOooooo@o@@@O@ooo@oooooooooo@o@Oooooo@O@oooo@o@@@OO++@ooo@ooo@@"
	};